<svg width="136" height="35" viewBox="0 0 136 35" fill="none" xmlns="http://www.w3.org/2000/svg">
    <rect x="44" y="3" width="66" height="28" rx="3" fill="#635BFF"/>
    <path d="M54.808 26h-6.96V8.24h6.72c5.208 0 8.832 3.648 8.832 8.928 0 5.184-3.528 8.832-8.592 8.832zm-.624-14.16h-2.448V22.4h2.688c3.072 0 4.872-1.944 4.872-5.232 0-3.36-1.896-5.328-5.112-5.328zm10.818 8.136c0-3.792 2.784-6.336 6.624-6.336 3.816 0 6.6 2.544 6.6 6.336 0 3.792-2.784 6.312-6.6 6.312-3.84 0-6.624-2.52-6.624-6.312zm3.72-.024c0 1.824 1.176 3.024 2.904 3.024 1.704 0 2.88-1.2 2.88-3.024 0-1.8-1.176-3-2.88-3-1.728 0-2.904 1.2-2.904 3zm10.999 0c0-3.696 2.544-6.336 6.144-6.336 3.552 0 5.904 1.944 6.144 5.088h-3.72c-.264-1.2-1.008-1.776-2.28-1.776-1.56 0-2.568 1.176-2.568 3.024 0 1.92.936 3.048 2.52 3.048 1.296 0 2.088-.6 2.328-1.776h3.72c-.24 3.024-2.688 5.088-6.048 5.088-3.792 0-6.24-2.52-6.24-6.36zM102 14h3.696v12h-3.48l-.24-1.344c-.744.984-2.232 1.656-3.672 1.656-2.736 0-4.416-1.824-4.416-4.776V14h3.696v6.192c0 1.968.672 2.832 2.184 2.832 1.584 0 2.232-.816 2.232-2.784V14z" fill="#fff"/>
    <path d="M119.166 8.24V26h-3.888V8.24h3.888zm2.337 3.6v-3.6h13.968v3.6h-5.04V26h-3.888V11.84h-5.04z" fill="#635BFF"/>
    <path fill-rule="evenodd" clip-rule="evenodd" d="M7.292 4.01a3.281 3.281 0 1 0 0 6.563 3.281 3.281 0 0 0 0-6.563zm-5.47 3.282a5.469 5.469 0 1 1 10.938 0 5.469 5.469 0 0 1-10.937 0zm13.126 0c0-.604.49-1.094 1.094-1.094h7.484c4.012 0 5.538 5.24 2.153 7.394l-15.183 9.662c-1.539.979-.845 3.36.978 3.36h4.844l-.32-.32a1.094 1.094 0 1 1 1.546-1.547l2.188 2.188c.427.427.427 1.12 0 1.547l-2.188 2.187a1.094 1.094 0 1 1-1.546-1.547l.32-.32h-4.844c-4.012 0-5.538-5.24-2.153-7.394l15.183-9.662c1.539-.979.845-3.36-.978-3.36h-7.484c-.604 0-1.094-.49-1.094-1.094zm12.76 17.135a3.281 3.281 0 1 0 0 6.563 3.281 3.281 0 0 0 0-6.563zm-5.468 3.281a5.469 5.469 0 1 1 10.937 0 5.469 5.469 0 0 1-10.937 0z" fill="#635BFF" stroke="#635BFF" stroke-width=".5" stroke-linecap="round"/>
</svg>
